PathFileType	4	(X/Y/Z)	C:/Users/opensim2020/Desktop/walking_exp_matlab/subject01_walking09_straight_04.trc	
DataRate	CameraRate	NumFrames	NumMarkers	Units	OrigDataRate	OrigDataStartFrame	OrigNumFrames	
100.00	100.00	8	43	mm	100.00	4069	292	
Frame#	Time	LFHD			RFHD			LBHD			RBHD			C7			T10			CLAV			STRN			RBAK			LSHO			LUPA			LELB			LFRM			LWRA			LWRB			LFIN			RSHO			RUPA			RELB			RFRM			RWRA			RWRB			RFIN			LASI			RASI			LPSI			RPSI			LTHI			LKNE			LTIB			LANK			LHEE			LTOE			RTHI			RKNE			RTIB			RANK			RHEE			RTOE			*39			*40			*41			*42			
		X1	Y1	Z1	X2	Y2	Z2	X3	Y3	Z3	X4	Y4	Z4	X5	Y5	Z5	X6	Y6	Z6	X7	Y7	Z7	X8	Y8	Z8	X9	Y9	Z9	X10	Y10	Z10	X11	Y11	Z11	X12	Y12	Z12	X13	Y13	Z13	X14	Y14	Z14	X15	Y15	Z15	X16	Y16	Z16	X17	Y17	Z17	X18	Y18	Z18	X19	Y19	Z19	X20	Y20	Z20	X21	Y21	Z21	X22	Y22	Z22	X23	Y23	Z23	X24	Y24	Z24	X25	Y25	Z25	X26	Y26	Z26	X27	Y27	Z27	X28	Y28	Z28	X29	Y29	Z29	X30	Y30	Z30	X31	Y31	Z31	X32	Y32	Z32	X33	Y33	Z33	X34	Y34	Z34	X35	Y35	Z35	X36	Y36	Z36	X37	Y37	Z37	X38	Y38	Z38	X39	Y39	Z39	X40	Y40	Z40	X41	Y41	Z41	X42	Y42	Z42	X43	Y43	Z43	

183	1.820	1555.91333	-70.33546	1660.45313	1444.04199	-90.34002	1665.86670	1541.20764	51.06629	1635.15869	1421.66687	33.03674	1640.32458	1492.01147	108.48928	1434.32166	1467.81226	147.90729	1141.41748	1492.14746	-33.38231	1362.30493	1492.62524	-71.87908	1207.08374	1405.15149	164.74391	1242.50793	1652.13086	32.21115	1387.15234	1735.68579	46.59969	1203.02124	1742.32581	30.55641	1051.16736	1764.91052	-44.07985	963.08313	1742.73376	-159.24721	886.75275	1767.51538	-110.64095	860.97162	1780.42615	-182.22824	818.55273	1339.69067	26.25662	1398.99243	1232.14026	95.61674	1205.30310	1225.58887	101.82233	1081.32520	1190.45508	81.68943	963.84772	1206.43713	10.43375	840.34143	1165.51074	51.27229	846.47668	1166.21594	21.52403	764.71918	1577.72009	-16.57007	930.07025	1360.85718	-28.13838	938.81146	1511.63013	166.26563	945.66962	1366.66553	154.80681	947.92462	1613.81152	32.30622	596.76117	1590.52808	49.57606	462.98553	1589.23560	114.53967	283.72153	1525.21448	154.10527	70.45110	1469.67297	197.99953	43.50727	1532.31812	6.82179	33.06237	1291.40369	-62.79753	616.13092	1318.33142	-114.40969	466.45258	1311.03442	-63.65416	298.22263	1356.17444	-43.70480	91.47794	1410.79163	-0.30707	51.36020	1349.32288	-180.25420	52.77495	1466.91895	-82.95094	1700.41223	-3101.98413	1973.02979	1023.90771	-3140.65601	2012.52869	1022.17517			 
184	1.830	1555.46948	-76.71157	1659.99353	1443.61707	-96.77861	1665.29041	1540.80640	44.67510	1634.75159	1421.24414	26.63688	1639.76465	1491.76721	102.17522	1433.80444	1467.67200	141.60440	1140.93298	1492.10144	-39.63479	1361.77319	1492.88818	-78.12532	1206.54456	1405.06580	158.28790	1241.87585	1651.96350	26.04624	1386.81409	1735.82031	39.76722	1202.86926	1742.73828	23.01770	1051.10193	1765.10901	-52.71631	963.80627	1742.75891	-168.82967	889.09741	1767.48889	-120.56915	862.57886	1780.31213	-192.62138	821.08374	1339.50513	19.76960	1398.28882	1232.26465	89.54730	1204.66748	1225.70984	95.87682	1080.69897	1190.62048	76.02390	963.18835	1206.68359	5.25760	839.41956	1165.80127	45.75456	845.80280	1166.45508	16.25583	763.81097	1578.21008	-22.41452	929.59625	1361.40430	-34.94768	938.49231	1511.43579	160.08667	945.13947	1366.43494	147.79790	947.47388	1613.75818	28.27142	596.30383	1590.58386	46.87409	462.50912	1589.13159	113.09292	283.75470	1525.13135	153.84441	70.68365	1469.46692	197.98035	44.03748	1532.26392	6.75153	32.92627	1291.87366	-68.44373	615.52979	1319.50232	-121.33704	466.15274	1311.40552	-77.06554	296.53409	1355.95447	-65.53929	88.61229	1410.15393	-23.14597	46.97717	1350.07996	-203.57573	55.19881	1466.46265	-89.24080	1699.75305	-3102.07153	1972.94177	1023.92743	-3140.67944	2012.49976	1022.11420			 
185	1.840	1554.98022	-83.10950	1659.50562	1443.10181	-103.20168	1664.65527	1540.25232	38.27927	1634.30945	1420.77100	20.21037	1639.23303	1491.44690	95.86356	1433.27551	1467.39465	135.22818	1140.38892	1492.00024	-46.00357	1361.28357	1493.06335	-84.47060	1205.99866	1404.90015	151.81326	1241.20032	1651.72375	19.88253	1386.49731	1735.88501	33.06905	1202.72571	1743.00891	15.37386	1050.90649	1765.19885	-61.35387	964.47443	1742.51355	-178.26717	891.18475	1767.46826	-130.46976	864.09772	1780.02014	-203.08784	823.52588	1339.20581	13.31754	1397.61194	1232.23816	83.41153	1203.98584	1225.94287	89.90452	1079.99292	1190.68311	70.18869	962.36792	1206.67017	-0.62306	838.65515	1165.95862	40.26292	844.87335	1166.64941	11.00974	762.99371	1578.56128	-28.32306	929.03076	1361.89600	-41.81607	938.02740	1511.24487	153.85878	944.57971	1366.35193	141.19292	947.13257	1613.69055	24.30820	595.81158	1590.65430	44.19084	462.12006	1589.09363	111.65865	283.77048	1525.03003	153.59259	70.97218	1469.45972	197.72353	44.53317	1532.36853	6.70866	32.96905	1292.22351	-74.30833	614.49518	1320.16382	-128.60074	465.58957	1311.60205	-90.00533	294.75742	1355.77759	-86.76473	86.46910	1409.76404	-45.81622	43.07621	1350.82874	-226.24925	58.13745	1465.86987	-95.81526	1699.26184	-3101.91040	1973.07788	1023.42029	-3140.76245	2012.46606	1022.12677			 
186	1.850	1554.36353	-89.52343	1659.01697	1442.48914	-109.53894	1664.00464	1539.73584	31.89030	1633.86084	1419.76733	14.02729	1638.97864	1491.04089	89.51270	1432.70947	1467.11353	128.82292	1139.80005	1491.75391	-52.32413	1360.71582	1493.19873	-90.92190	1205.51978	1404.64075	145.28726	1240.44116	1651.44031	13.64010	1386.19812	1735.84656	26.29282	1202.51050	1743.29480	7.82176	1050.79907	1765.21606	-69.89689	965.12744	1742.16980	-187.61501	893.23254	1767.09741	-140.19193	865.56085	1779.71887	-213.26979	825.92639	1338.93225	6.79690	1396.95850	1232.19495	77.22189	1203.19470	1225.81921	83.81660	1079.28479	1190.77991	64.36482	961.66064	1206.72473	-6.29893	837.74347	1166.07373	34.49469	844.05096	1166.80017	5.51055	761.98688	1578.90283	-34.28318	928.44489	1362.31189	-48.74912	937.55115	1511.04395	147.52162	943.93750	1366.30579	134.39853	946.71606	1613.70325	20.32989	595.38263	1590.80420	41.48275	461.80136	1589.10205	110.08422	283.96545	1524.74353	153.34708	71.32072	1469.30103	197.46915	45.04556	1532.30884	6.54480	32.88169	1292.73572	-80.04606	613.66766	1320.95593	-134.93028	465.20715	1311.80872	-102.73653	293.47491	1355.61121	-107.66637	84.97887	1409.41736	-68.22945	40.02946	1351.34131	-248.25099	61.39208	1465.25208	-102.08057	1698.54419	-3101.86279	1973.11096	1023.78864	-3140.62842	2012.53625	1022.08008			 
187	1.860	1553.69897	-95.93066	1658.49011	1441.83179	-115.99865	1663.37708	1539.05627	25.48889	1633.39551	1419.51855	7.39490	1637.99597	1490.52148	83.14664	1432.12500	1466.72546	122.35356	1139.18542	1491.42920	-58.61059	1360.11670	1493.19604	-97.27776	1204.91138	1404.34485	138.71785	1239.65637	1651.04065	7.41553	1385.82910	1735.75977	19.59986	1202.33618	1743.41040	0.26315	1050.64063	1765.17102	-78.40003	965.72943	1741.85876	-196.96498	895.26251	1766.82996	-149.85889	866.99780	1779.26575	-223.42027	828.19336	1338.42896	0.28258	1396.09229	1232.11218	70.97565	1202.41150	1225.91345	77.65440	1078.43115	1190.80322	58.42097	960.77972	1206.76733	-12.05168	836.74036	1166.09473	28.75158	843.14978	1166.96899	-0.11873	761.00885	1579.18701	-40.31939	927.86017	1362.66284	-55.84874	937.10040	1510.84839	141.15410	943.33667	1366.15125	127.64597	946.19202	1613.67993	16.35287	595.01355	1590.94788	38.72460	461.47122	1589.09045	108.48953	284.04773	1524.86035	152.98921	71.72113	1469.17761	197.27574	45.61656	1532.29370	6.40420	32.81936	1293.04932	-85.87523	612.58344	1321.67468	-141.06514	464.63806	1311.86792	-114.86314	292.26160	1355.53955	-127.80829	83.76431	1408.96460	-89.95256	37.37953	1352.05518	-269.60965	65.23195	1464.51025	-108.69690	1698.03711	-3101.88013	1973.14636	1023.45721	-3140.63184	2012.58594	1022.09381			 
188	1.870	1552.96826	-102.31899	1658.00232	1441.05872	-122.38365	1662.72815	1538.30688	19.11854	1632.86255	1418.58813	1.23457	1637.60315	1489.88452	76.68143	1431.43335	1466.22034	115.81387	1138.51648	1491.00720	-65.03964	1359.49060	1493.16992	-103.81704	1204.35815	1403.97925	132.10951	1238.83313	1650.56995	1.11199	1385.43054	1735.48242	12.89925	1202.09888	1743.46436	-7.30341	1050.43127	1765.00061	-86.90850	966.27972	1741.36377	-206.15240	897.15350	1766.63904	-159.48367	868.44507	1778.79028	-233.46486	830.47565	1337.97400	-6.28417	1395.28894	1231.87329	64.63014	1201.56067	1225.67346	71.45961	1077.58752	1190.75769	52.36013	959.85876	1206.91272	-17.68303	835.64948	1166.10474	22.83435	842.14349	1167.07849	-5.86514	759.93243	1579.45459	-46.34450	927.21155	1363.02368	-62.97937	936.43341	1510.52368	134.71109	942.67206	1365.95166	120.56873	945.57385	1613.69128	12.37063	594.64795	1591.04663	35.82660	461.17120	1589.15796	106.72464	284.25140	1524.71179	152.82951	72.22501	1469.21533	197.32413	46.55384	1532.33215	6.39606	32.77131	1293.36914	-91.49086	611.57703	1322.22388	-147.32793	464.11273	1312.09241	-126.85739	291.35175	1355.59192	-147.65445	83.37735	1408.43298	-110.07369	36.55827	1352.84509	-290.06705	69.21109	1463.77063	-114.93095	1697.31580	-3101.82324	1973.10156	1023.34442	-3140.60889	2012.50623	1022.02917			 
189	1.880	1552.11829	-108.66645	1657.48206	1440.22278	-128.81960	1662.11560	1537.49780	12.71589	1632.32043	1417.76367	-5.19104	1636.93005	1489.31360	70.23843	1430.89661	1465.67566	109.23193	1137.83142	1490.59082	-71.61696	1358.98547	1493.02893	-110.29762	1203.74927	1403.51514	125.41335	1237.98438	1650.01526	-5.20355	1385.05798	1735.14197	6.20683	1201.82959	1743.42834	-14.84639	1050.29041	1764.80347	-95.32142	966.84711	1740.82886	-215.27103	899.00555	1766.24475	-168.99988	869.76788	1778.19067	-243.39090	832.56281	1337.52002	-12.74464	1394.16675	1231.55432	58.12231	1200.58398	1225.64661	65.20548	1076.67834	1190.71240	46.21411	958.88867	1206.80139	-23.96820	834.75940	1166.10413	16.93472	841.07922	1167.14551	-11.74153	758.89056	1579.70288	-52.48566	926.58978	1363.33154	-70.21096	935.80127	1510.07996	128.21101	942.00128	1365.67212	113.57932	944.89282	1613.75134	8.38589	594.38379	1591.18518	32.95943	460.90009	1589.24365	104.97266	284.56125	1524.72961	152.34601	72.50780	1468.91772	196.87610	47.06351	1532.44678	6.20787	32.72954	1293.40393	-97.49257	610.53119	1322.70752	-153.55653	463.53143	1312.26001	-138.68166	290.61044	1355.64758	-166.60262	83.23151	1407.36401	-130.43738	35.54351	1353.84058	-309.47571	73.40900	1462.84631	-121.48973	1696.76990	-3101.92090	1973.07458	1023.47479	-3140.73779	2012.51587	1022.19690			 
190	1.890	1551.20532	-115.05050	1656.98193	1439.31152	-135.22078	1661.46826	1536.57178	6.33166	1631.73242	1416.85266	-11.62632	1636.23804	1488.49707	63.73919	1430.15845	1465.09583	102.62370	1137.12524	1490.05811	-78.13745	1358.35596	1492.81482	-116.91595	1203.17175	1403.02173	118.69104	1237.11816	1649.37329	-11.58865	1384.69165	1734.77539	-0.47777	1201.55249	1743.27637	-22.43090	1050.09143	1764.50183	-103.72490	967.40240	1740.23450	-224.28673	900.74127	1765.63098	-178.28398	871.09332	1777.61438	-253.16701	834.59357	1336.76086	-19.39004	1393.30310	1231.21289	51.67275	1199.61804	1225.41101	58.80377	1075.72034	1190.63708	40.00487	957.91034	1206.77502	-30.12273	833.71381	1166.12610	10.82880	840.02771	1167.19836	-17.75538	757.86438	1579.92419	-58.66003	925.97906	1363.68542	-77.39734	935.01703	1509.52002	121.67769	941.31366	1365.25940	106.51706	944.11694	1613.73486	4.46472	594.08368	1591.34863	30.00717	460.69073	1589.16357	103.26057	284.87119	1524.69678	152.20273	73.25756	1468.91626	196.80354	47.88837	1532.60315	6.23729	32.86942	1293.48438	-103.22150	609.60278	1323.07605	-159.93222	462.90942	1312.41956	-150.29286	289.90768	1355.60754	-184.55142	83.33247	1407.28809	-150.06859	33.89211	1354.94409	-327.78815	77.45587	1461.95190	-127.69113	1696.12598	-3101.78564	1973.22888	1023.55701	-3140.64429	2012.57349	1022.09747			 
